<svg width="111" height="39" viewBox="0 0 111 39" fill="none" xmlns="http://www.w3.org/2000/svg">
<path d="M36.6511 20.297C35.9883 24.2506 34.6743 27.565 32.7094 30.2402C30.7444 32.9154 28.3592 34.9336 25.5538 36.2949C22.7484 37.6561 19.7477 38.3368 16.5517 38.3368C13.1426 38.3368 10.1833 37.5969 7.67387 36.1173C5.1644 34.6377 3.33557 32.4715 2.18737 29.6187C1.03917 26.766 0.808342 23.2799 1.4949 19.1606C2.1341 15.207 3.43618 11.8808 5.40115 9.18193C7.36611 6.48307 9.76312 4.44116 12.5922 3.05622C15.4213 1.67127 18.4457 0.978803 21.6654 0.978803C25.0508 0.978803 27.9923 1.72454 30.4899 3.21602C32.9994 4.7075 34.8223 6.89144 35.9587 9.76787C37.1069 12.6443 37.3377 16.154 36.6511 20.297ZM26.708 19.1606C27.0394 17.0773 27.0631 15.3254 26.779 13.9049C26.4949 12.4726 25.8971 11.3955 24.9857 10.6734C24.0742 9.9395 22.8491 9.57255 21.3102 9.57255C19.5583 9.57255 18.0077 9.99869 16.6582 10.851C15.3088 11.7032 14.1902 12.9284 13.3024 14.5264C12.4146 16.1244 11.7932 18.0479 11.4381 20.297C11.0593 22.404 11.0238 24.1559 11.3315 25.5527C11.6511 26.9494 12.2785 27.997 13.2136 28.6954C14.1606 29.3938 15.3917 29.743 16.9068 29.743C18.635 29.743 20.162 29.3287 21.4878 28.5001C22.8254 27.6715 23.9322 26.47 24.8081 24.8957C25.6959 23.3214 26.3292 21.4097 26.708 19.1606ZM52.5114 37.8396H38.3069L44.3438 1.47596H57.9802C61.7207 1.47596 64.8457 2.22762 67.3552 3.73093C69.8646 5.23425 71.6461 7.38269 72.6996 10.1762C73.7531 12.9698 73.9603 16.296 73.3211 20.1549C72.7055 23.8718 71.4567 27.0501 69.5746 29.6897C67.7044 32.3294 65.3133 34.3476 62.4013 35.7444C59.5012 37.1412 56.2046 37.8396 52.5114 37.8396ZM49.564 29.4589H53.1506C54.9499 29.4589 56.5538 29.1452 57.9624 28.5179C59.3829 27.8787 60.5666 26.8133 61.5135 25.3218C62.4723 23.8185 63.1648 21.7648 63.591 19.1606C63.9934 16.6985 63.9816 14.7986 63.5554 13.461C63.1293 12.1116 62.3185 11.1765 61.1229 10.6556C59.9274 10.123 58.3826 9.85664 56.4887 9.85664H52.831L49.564 29.4589ZM89.1813 37.8396H74.9768L81.0137 1.47596H94.6501C98.3906 1.47596 101.516 2.22762 104.025 3.73093C106.535 5.23425 108.316 7.38269 109.37 10.1762C110.423 12.9698 110.63 16.296 109.991 20.1549C109.375 23.8718 108.127 27.0501 106.245 29.6897C104.374 32.3294 101.983 34.3476 99.0712 35.7444C96.1712 37.1412 92.8745 37.8396 89.1813 37.8396ZM86.2339 29.4589H89.8205C91.6198 29.4589 93.2237 29.1452 94.6323 28.5179C96.0528 27.8787 97.2365 26.8133 98.1835 25.3218C99.1423 23.8185 99.8347 21.7648 100.261 19.1606C100.663 16.6985 100.652 14.7986 100.225 13.461C99.7992 12.1116 98.9884 11.1765 97.7928 10.6556C96.5973 10.123 95.0525 9.85664 93.1586 9.85664H89.5009L86.2339 29.4589Z" fill="url(#paint0_linear_11_85)"/>
<defs>
<linearGradient id="paint0_linear_11_85" x1="55.4409" y1="-11.1604" x2="55.4409" y2="49.8396" gradientUnits="userSpaceOnUse">
<stop offset="0.541" stop-color="#FFE27D"/>
<stop offset="1" stop-color="#E5E5E5"/>
</linearGradient>
</defs>
</svg>
