<svg width="80" height="28" viewBox="0 0 80 28" fill="none" xmlns="http://www.w3.org/2000/svg">
<path d="M26.3899 14.3693C25.9126 17.2159 24.9666 19.6023 23.5518 21.5284C22.1371 23.4545 20.4197 24.9077 18.3998 25.8878C16.38 26.8679 14.2194 27.358 11.9183 27.358C9.46377 27.358 7.33309 26.8253 5.52627 25.7599C3.71945 24.6946 2.40269 23.1349 1.57598 21.081C0.749279 19.027 0.583086 16.517 1.0774 13.5511C1.53763 10.7045 2.47513 8.30966 3.8899 6.36648C5.30468 4.4233 7.03053 2.95312 9.06746 1.95597C11.1044 0.958806 13.2819 0.460226 15.6001 0.460226C18.0376 0.460226 20.1555 0.997158 21.9538 2.07102C23.7606 3.14489 25.0731 4.71733 25.8913 6.78835C26.718 8.85937 26.8842 11.3864 26.3899 14.3693ZM19.2308 13.5511C19.4695 12.0511 19.4865 10.7898 19.2819 9.76705C19.0774 8.7358 18.647 7.96023 17.9908 7.44034C17.3345 6.91193 16.4524 6.64773 15.3444 6.64773C14.0831 6.64773 12.9666 6.95454 11.995 7.56818C11.0234 8.18182 10.218 9.06392 9.57882 10.2145C8.93962 11.3651 8.49218 12.75 8.23649 14.3693C7.96377 15.8864 7.9382 17.1477 8.15979 18.1534C8.3899 19.1591 8.84161 19.9134 9.5149 20.4162C10.1967 20.919 11.0831 21.1705 12.174 21.1705C13.4183 21.1705 14.5177 20.8722 15.4723 20.2756C16.4354 19.679 17.2322 18.8139 17.8629 17.6804C18.5021 16.5469 18.9581 15.1705 19.2308 13.5511ZM37.8093 27H27.582L31.9286 0.818181H41.7468C44.44 0.818181 46.69 1.35937 48.4968 2.44176C50.3036 3.52415 51.5863 5.07102 52.3448 7.08239C53.1033 9.09375 53.2525 11.4886 52.7922 14.267C52.3491 16.9432 51.4499 19.2315 50.0948 21.1321C48.7482 23.0327 47.0266 24.4858 44.93 25.4915C42.842 26.4972 40.4684 27 37.8093 27ZM35.6871 20.9659H38.2695C39.565 20.9659 40.7198 20.7401 41.734 20.2884C42.7567 19.8281 43.609 19.0611 44.2908 17.9872C44.9812 16.9048 45.4797 15.4261 45.7866 13.5511C46.0763 11.7784 46.0678 10.4105 45.761 9.44744C45.4542 8.47585 44.8704 7.80256 44.0096 7.42756C43.1488 7.04403 42.0366 6.85227 40.6729 6.85227H38.0394L35.6871 20.9659ZM64.2116 27H53.9844L58.331 0.818181H68.1491C70.8423 0.818181 73.0923 1.35937 74.8991 2.44176C76.706 3.52415 77.9886 5.07102 78.7471 7.08239C79.5057 9.09375 79.6548 11.4886 79.1946 14.267C78.7514 16.9432 77.8523 19.2315 76.4971 21.1321C75.1506 23.0327 73.429 24.4858 71.3324 25.4915C69.2443 26.4972 66.8707 27 64.2116 27ZM62.0895 20.9659H64.6719C65.9673 20.9659 67.1221 20.7401 68.1364 20.2884C69.1591 19.8281 70.0114 19.0611 70.6932 17.9872C71.3835 16.9048 71.8821 15.4261 72.1889 13.5511C72.4787 11.7784 72.4702 10.4105 72.1633 9.44744C71.8565 8.47585 71.2727 7.80256 70.4119 7.42756C69.5511 7.04403 68.4389 6.85227 67.0753 6.85227H64.4418L62.0895 20.9659Z" fill="url(#paint0_linear_11_38)"/>
<defs>
<linearGradient id="paint0_linear_11_38" x1="39.8785" y1="-8" x2="39.8785" y2="36" gradientUnits="userSpaceOnUse">
<stop offset="0.541" stop-color="#FFE27D"/>
<stop offset="1" stop-color="#E5E5E5"/>
</linearGradient>
</defs>
</svg>
